<svg viewBox="0 0 500 400" xmlns="http://www.w3.org/2000/svg" role="img" aria-label="Marchés financiers">
  <rect width="500" height="400" fill="#f6f8fc"/>
  <g stroke="#e6e9ef" stroke-width="1"><path d="M0 100H500M0 200H500M0 300H500"/></g>
  <g fill="none" stroke="#1f4f9c" stroke-width="2.5" stroke-linejoin="round" stroke-linecap="round">
    <path d="M30 300 L90 250 L150 270 L210 180 L270 210 L330 120 L390 150 L470 70"/>
  </g>
  <g>
    <circle cx="90" cy="250" r="4" fill="#0a1f44"/><circle cx="210" cy="180" r="4" fill="#0a1f44"/>
    <circle cx="330" cy="120" r="4" fill="#0a1f44"/><circle cx="470" cy="70" r="4" fill="#1f4f9c"/>
  </g>
  <!-- candles -->
  <g stroke="#0a1f44" stroke-width="1.5">
    <line x1="120" y1="300" x2="120" y2="360"/><rect x="112" y="315" width="16" height="35" fill="#1f4f9c"/>
    <line x1="180" y1="290" x2="180" y2="355"/><rect x="172" y="300" width="16" height="40" fill="#fff"/>
    <line x1="240" y1="305" x2="240" y2="365"/><rect x="232" y="320" width="16" height="30" fill="#1f4f9c"/>
    <line x1="300" y1="285" x2="300" y2="350"/><rect x="292" y="298" width="16" height="38" fill="#fff"/>
    <line x1="360" y1="295" x2="360" y2="360"/><rect x="352" y="308" width="16" height="34" fill="#1f4f9c"/>
  </g>
</svg>
