<svg viewBox="0 0 480 600" xmlns="http://www.w3.org/2000/svg" role="img" aria-label="Portrait d'Obed Kabeya">
  <defs>
    <linearGradient id="pbg" x1="0" y1="0" x2="1" y2="1">
      <stop offset="0" stop-color="#0a1f44"/>
      <stop offset="1" stop-color="#06152e"/>
    </linearGradient>
    <linearGradient id="pfig" x1="0" y1="0" x2="0" y2="1">
      <stop offset="0" stop-color="#1f4f9c"/>
      <stop offset="1" stop-color="#12305f"/>
    </linearGradient>
  </defs>
  <rect width="480" height="600" fill="url(#pbg)"/>
  <g opacity="0.15" stroke="#7ea6e8" stroke-width="1" fill="none">
    <path d="M0 120 H480 M0 240 H480 M0 360 H480 M0 480 H480"/>
    <path d="M96 0 V600 M192 0 V600 M288 0 V600 M384 0 V600"/>
  </g>
  <g opacity="0.35" stroke="#7ea6e8" stroke-width="2" fill="none">
    <path d="M40 470 L120 400 L180 440 L260 330 L340 380 L440 260"/>
  </g>
  <!-- silhouette -->
  <g>
    <ellipse cx="240" cy="600" rx="150" ry="180" fill="url(#pfig)"/>
    <circle cx="240" cy="250" r="86" fill="url(#pfig)"/>
    <circle cx="240" cy="250" r="86" fill="none" stroke="#7ea6e8" stroke-width="1.5" opacity="0.5"/>
  </g>
  <text x="240" y="560" text-anchor="middle" font-family="Georgia, serif" font-size="26" fill="#dfe6f2" letter-spacing="3">OBED KABEYA</text>
  <text x="240" y="588" text-anchor="middle" font-family="Arial, sans-serif" font-size="11" fill="#7ea6e8" letter-spacing="4">BANQUIER DE MARCHÉ · TRADER</text>
</svg>
